<svg xmlns="http://www.w3.org/2000/svg" xmlns:xlink="http://www.w3.org/1999/xlink" width="2000" zoomAndPan="magnify" viewBox="0 0 1500 1499.999933" height="2000" preserveAspectRatio="xMidYMid meet" version="1.0"><defs><g/><clipPath id="0ad1466114"><rect x="0" width="1435" y="0" height="605"/></clipPath></defs><rect x="-150" width="1800" fill="#ffffff" y="-149.999993" height="1799.99992" fill-opacity="1"/><rect x="-150" width="1800" fill="#000000" y="-149.999993" height="1799.99992" fill-opacity="1"/><g transform="matrix(1, 0, 0, 1, 29, 447)"><g clip-path="url(#0ad1466114)"><g fill="#ffffff" fill-opacity="1"><g transform="translate(1.108783, 468.224258)"><g><path d="M 15.671875 0 L 15.671875 -354.375 L 123.765625 -354.375 L 153.46875 -138.203125 L 183.171875 -354.375 L 292.078125 -354.375 L 292.078125 0 L 227.3125 0 L 227.3125 -255.359375 L 186.46875 0 L 122.9375 0 L 79.625 -255.359375 L 79.625 0 Z M 15.671875 0 "/></g></g></g><g fill="#ffffff" fill-opacity="1"><g transform="translate(299.787016, 468.224258)"><g><path d="M 100.25 3.296875 C 71.644531 3.296875 49.914062 -5.429688 35.0625 -22.890625 C 20.207031 -40.359375 12.78125 -64.90625 12.78125 -96.53125 L 12.78125 -265.265625 C 12.78125 -295.796875 20.207031 -318.828125 35.0625 -334.359375 C 49.914062 -349.898438 71.644531 -357.671875 100.25 -357.671875 C 128.851562 -357.671875 150.578125 -349.898438 165.421875 -334.359375 C 180.273438 -318.828125 187.703125 -295.796875 187.703125 -265.265625 L 187.703125 -96.53125 C 187.703125 -64.632812 180.273438 -40.019531 165.421875 -22.6875 C 150.578125 -5.363281 128.851562 3.296875 100.25 3.296875 Z M 100.25 -61.875 C 106.570312 -61.875 110.832031 -64.625 113.03125 -70.125 C 115.238281 -75.632812 116.34375 -83.335938 116.34375 -93.234375 L 116.34375 -266.5 C 116.34375 -274.207031 115.3125 -280.46875 113.25 -285.28125 C 111.1875 -290.09375 106.988281 -292.5 100.65625 -292.5 C 88.832031 -292.5 82.921875 -283.5625 82.921875 -265.6875 L 82.921875 -92.828125 C 82.921875 -82.648438 84.15625 -74.945312 86.625 -69.71875 C 89.101562 -64.488281 93.644531 -61.875 100.25 -61.875 Z M 100.25 -61.875 "/></g></g></g><g fill="#ffffff" fill-opacity="1"><g transform="translate(491.205074, 468.224258)"><g><path d="M 12.375 0 L 12.375 -354.375 L 80.859375 -354.375 L 80.859375 0 Z M 12.375 0 "/></g></g></g><g fill="#ffffff" fill-opacity="1"><g transform="translate(575.775542, 468.224258)"><g><path d="M 15.671875 -354.375 L 113.453125 -354.375 C 138.753906 -354.375 157.726562 -347.359375 170.375 -333.328125 C 183.03125 -319.304688 189.492188 -298.546875 189.765625 -271.046875 L 190.59375 -105.203125 C 190.875 -70.273438 184.820312 -44.007812 172.4375 -26.40625 C 160.0625 -8.800781 139.570312 0 110.96875 0 L 15.671875 0 Z M 99.421875 -62.703125 C 112.347656 -62.703125 118.8125 -69.03125 118.8125 -81.6875 L 118.8125 -264.4375 C 118.8125 -272.414062 118.191406 -278.398438 116.953125 -282.390625 C 115.710938 -286.378906 113.441406 -289.0625 110.140625 -290.4375 C 106.847656 -291.8125 101.765625 -292.5 94.890625 -292.5 L 87.046875 -292.5 L 87.046875 -62.703125 Z M 99.421875 -62.703125 "/></g></g></g><g fill="#ffffff" fill-opacity="1"><g transform="translate(770.081356, 468.224258)"><g><path d="M 15.671875 0 L 15.671875 -354.375 L 157.59375 -354.375 L 157.59375 -285.890625 L 87.875 -285.890625 L 87.875 -217 L 154.703125 -217 L 154.703125 -150.171875 L 87.875 -150.171875 L 87.875 -68.890625 L 162.125 -68.890625 L 162.125 0 Z M 15.671875 0 "/></g></g></g><g fill="#ffffff" fill-opacity="1"><g transform="translate(930.971553, 468.224258)"><g><path d="M 15.671875 0 L 15.671875 -354.375 L 86.640625 -354.375 L 86.640625 -60.234375 L 159.65625 -60.234375 L 159.65625 0 Z M 15.671875 0 "/></g></g></g><g fill="#ffffff" fill-opacity="1"><g transform="translate(1085.673727, 468.224258)"><g><path d="M 15.671875 0 L 15.671875 -354.375 L 86.640625 -354.375 L 86.640625 -60.234375 L 159.65625 -60.234375 L 159.65625 0 Z M 15.671875 0 "/></g></g></g><g fill="#ffffff" fill-opacity="1"><g transform="translate(1240.375833, 468.224258)"><g><path d="M 100.25 3.296875 C 71.644531 3.296875 49.914062 -5.429688 35.0625 -22.890625 C 20.207031 -40.359375 12.78125 -64.90625 12.78125 -96.53125 L 12.78125 -265.265625 C 12.78125 -295.796875 20.207031 -318.828125 35.0625 -334.359375 C 49.914062 -349.898438 71.644531 -357.671875 100.25 -357.671875 C 128.851562 -357.671875 150.578125 -349.898438 165.421875 -334.359375 C 180.273438 -318.828125 187.703125 -295.796875 187.703125 -265.265625 L 187.703125 -96.53125 C 187.703125 -64.632812 180.273438 -40.019531 165.421875 -22.6875 C 150.578125 -5.363281 128.851562 3.296875 100.25 3.296875 Z M 100.25 -61.875 C 106.570312 -61.875 110.832031 -64.625 113.03125 -70.125 C 115.238281 -75.632812 116.34375 -83.335938 116.34375 -93.234375 L 116.34375 -266.5 C 116.34375 -274.207031 115.3125 -280.46875 113.25 -285.28125 C 111.1875 -290.09375 106.988281 -292.5 100.65625 -292.5 C 88.832031 -292.5 82.921875 -283.5625 82.921875 -265.6875 L 82.921875 -92.828125 C 82.921875 -82.648438 84.15625 -74.945312 86.625 -69.71875 C 89.101562 -64.488281 93.644531 -61.875 100.25 -61.875 Z M 100.25 -61.875 "/></g></g></g></g></g></svg>